<svg xmlns="http://www.w3.org/2000/svg" width="184" height="201" viewBox="0 0 184 201" version="1.1"><path d="M 52 23 L 52 39 59.500 39 L 67 39 67 46.500 L 67 54 75 54 L 83 54 83 62 L 83 70 91.500 70 L 100 70 100 62 L 100 54 107.500 54 L 115 54 115 46.500 L 115 39 123 39 L 131 39 131 23 L 131 7 122.500 7 L 114 7 114 14.500 L 114 22 107 22 L 100 22 100 14.500 L 100 7 91.500 7 L 83 7 83 14.500 L 83 22 75.500 22 L 68 22 68 14.500 L 68 7 60 7 L 52 7 52 23 M 36.209 77.209 L 36.500 85.500 44.500 85.500 L 52.500 85.500 52.500 77.500 L 52.500 69.500 44.209 69.209 L 35.918 68.918 36.209 77.209" stroke="none" fill="#fcf54c" fill-rule="evenodd"/><path d="M 36 46 L 36 53 28.500 53 L 21 53 21 61 L 21 69 13 69 L 5 69 5 93 L 5 117 13 117 L 21 117 21 124.500 L 21 132 28.500 132 L 36 132 36 140 L 36 148 44 148 L 52 148 52 156 L 52 164 59.500 164 L 67 164 67 171.500 L 67 179 75 179 L 83 179 83 187 L 83 195 91.500 195 L 100 195 100 187 L 100 179 107.500 179 L 115 179 115 171.500 L 115 164 123 164 L 131 164 131 156 L 131 148 138.500 148 L 146 148 146 140 L 146 132 154 132 L 162 132 162 124.500 L 162 117 170 117 L 178 117 178 93 L 178 69 170 69 L 162 69 162 61 L 162 53 154 53 L 146 53 146 46 L 146 39 130.500 39 L 115 39 115 46.500 L 115 54 107.500 54 L 100 54 100 62 L 100 70 91.500 70 L 83 70 83 62 L 83 54 75 54 L 67 54 67 46.500 L 67 39 51.500 39 L 36 39 36 46 M 36.209 77.209 L 36.500 85.500 44.500 85.500 L 52.500 85.500 52.500 77.500 L 52.500 69.500 44.209 69.209 L 35.918 68.918 36.209 77.209" stroke="none" fill="#f20404" fill-rule="evenodd"/></svg>